<svg xmlns="http://www.w3.org/2000/svg" width="560" height="424" viewBox="0 0 560 424" fill="none"><style>.a{fill:white;}.b{fill:#00666A;}.c{fill:#01898C;}.d{fill:#63C1C5;}.e{fill:#11375B;}.f{fill:#FFD247;}.g{fill:#F7A605;}.h{fill:#FFD248;}.i{fill:#FCBC00;}.j{fill:#F49742;}.k{fill:#212B53;}.l{fill:#664E4E;}.m{fill:#93CFC7;}.n{fill:#043C5E;}.o{fill:#B0D9C8;}</style><rect width="560" height="424" class="a"/><g clip-path="url(#clip0)"><path d="M202.3 208.8C202.3 208.8 200.5 130.7 146.9 110.5 81.3 183.8 153.7 248.2 153.7 248.2L202.3 208.8Z" class="b"/><path d="M146.9 110.5C146.7 110.7 146.5 111 146.3 111.2L171.3 199.8 119.4 175.3C119.4 175.9 119.4 176.5 119.4 177.2L171.9 202 179.2 227.5 180.6 226.3 166.2 175.4 187.8 150.1C187.5 149.5 187.3 149 187 148.4L165.6 173.4 147.9 110.9C147.6 110.7 147.3 110.6 146.9 110.5Z" class="c"/><path d="M177.5 199.3C177.5 199.3 127.4 139.7 73.7 150.7 53.8 213.5 120.5 246.4 120.5 246.4L188.4 250.7 177.5 199.3Z" class="d"/><path d="M133.3 162.9L128.5 197.1 75 150.5C74.6 150.5 74.1 150.6 73.7 150.7 73.6 150.9 73.6 151.2 73.5 151.4L102.2 176.4 70.4 180.6C70.4 180.9 70.4 181.2 70.5 181.5L70.6 182.3 103.9 177.9 151.7 219.6 96.1 228.8C96.6 229.3 97.2 229.8 97.7 230.2L153.4 221.1 187.3 250.7 188.5 250.7 188.1 249.1 130.1 198.5 134.9 163.9C134.4 163.5 133.8 163.2 133.3 162.9Z" class="a"/><path d="M170.5 235.9C170.5 235.9 107.6 219.5 82 254.9 116 337.3 223.2 299.9 223.2 299.9L170.5 235.9Z" class="e"/><path d="M82 254.9C82.1 255.2 82.3 255.5 82.4 255.8L169.1 271.4 133 303C133.6 303.2 134.3 303.4 134.9 303.6L171.2 271.8 205.1 277.9 203.4 275.8 137.5 264 116.5 234.2C115.9 234.3 115.3 234.5 114.7 234.6L135.1 263.6 82.6 254.1C82.4 254.4 82.2 254.6 82 254.9Z" class="b"/><path d="M336.7 131.2C336.7 131.2 361.9 53.6 418.4 43.2 462.5 96.3 410.6 154.5 410.6 154.5L346.3 185.5 336.7 131.2Z" class="d"/><path d="M365.3 78.5L383.4 109.9 417 43.4C417.5 43.4 417.9 43.3 418.4 43.2 418.5 43.4 418.7 43.6 418.9 43.8L400.9 79.4 433.4 70.9C433.5 71.3 433.6 71.6 433.7 71.9L433.9 72.7 399.8 81.5 369.8 140.8 427.4 127.8C427.1 128.5 426.7 129.2 426.4 129.9L368.7 142.9 347.4 185 346.3 185.5 346 183.7 382.4 111.8 364.1 80C364.5 79.5 364.9 79 365.3 78.5Z" class="a"/><path d="M357.9 164C357.9 164 412.6 123.3 451.3 147.7 450.8 241.1 331.9 247 331.9 247L357.9 164Z" class="b"/><path d="M451.3 147.7C451.3 148 451.3 148.4 451.3 148.7L373.3 198 420.7 214.4C420.2 214.9 419.6 215.3 419.1 215.8L371.3 199.2 340.8 218.4 341.7 215.8 401 178.3 409.6 141.1C410.3 141 410.9 140.9 411.6 140.8L403.2 177 450.5 147.1C450.8 147.3 451.1 147.5 451.3 147.7Z" class="c"/><path d="M329.4 13C348.6 13 364.1 27.8 364.1 46.1V354.8C364.1 373 348.6 387.8 329.4 387.8H207.1C188 387.8 172.4 373 172.4 354.8V46.1C172.4 27.8 188 13 207.1 13H329.4Z" class="c"/><path d="M333.4 18.9C351.5 18.9 358.8 32.9 358.8 50.2V350.7C358.8 368 351.5 382 333.4 382H205.6C187.5 382 177.7 370.2 177.7 352.9V48C177.7 30.7 187.5 18.9 205.6 18.9H333.4Z" class="e"/><path d="M351.6 63.9H184.8V335.1H351.6V63.9Z" class="a"/><path d="M269.9 374.6C277.7 374.6 284 368.2 284 360.5 284 352.7 277.7 346.4 269.9 346.4 262.1 346.4 255.8 352.7 255.8 360.5 255.8 368.2 262.1 374.6 269.9 374.6Z" class="a"/><path d="M269.9 372.3C276.5 372.3 281.8 367 281.8 360.5 281.8 353.9 276.5 348.6 269.9 348.6 263.3 348.6 258 353.9 258 360.5 258 367 263.4 372.3 269.9 372.3Z" class="d"/><path d="M301.2 43.9C301.6 43.9 301.9 43.3 301.9 42.6 301.9 42 301.6 41.4 301.2 41.4H236.2C235.9 41.4 235.5 42 235.5 42.6 235.5 43.3 235.8 43.9 236.2 43.9H301.2Z" class="c"/><path d="M344.1 86H193.2V327.8H344.1V86Z" class="c"/><path d="M278.6 63.9H183.3C183.3 97 159.7 128.2 159.7 128.2H278.6V63.9Z" class="f"/><path d="M160.5 127.6C161.1 134.4 166.9 139.8 173.9 139.8 180.9 139.8 186.7 134.4 187.4 127.6H160.5Z" class="g"/><path d="M186.9 127.6C187.5 134.4 193.3 139.8 200.3 139.8 207.3 139.8 213.1 134.4 213.8 127.6H186.9Z" class="g"/><path d="M213.9 127.6C214.5 134.4 220.3 139.8 227.3 139.8 234.4 139.8 240.1 134.4 240.8 127.6H213.9Z" class="g"/><path d="M240.3 127.6C240.9 134.4 246.7 139.8 253.7 139.8 260.8 139.8 266.5 134.4 267.2 127.6H240.3Z" class="g"/><path d="M278.6 127.6H267.5C268.1 133.6 272.7 138.5 278.6 139.5V127.6Z" class="g"/><path d="M256.9 63.9H352.2C352.2 97 375.8 128.2 375.8 128.2H256.9V63.9Z" class="f"/><path d="M375.1 127.6C374.4 134.4 368.6 139.8 361.6 139.8 354.6 139.8 348.8 134.4 348.1 127.6H375.1Z" class="g"/><path d="M348.7 127.6C348 134.4 342.2 139.8 335.2 139.8 328.2 139.8 322.4 134.4 321.7 127.6H348.7Z" class="g"/><path d="M321.7 127.6C321 134.4 315.2 139.8 308.2 139.8 301.2 139.8 295.4 134.4 294.7 127.6H321.7Z" class="g"/><path d="M295.3 127.6C294.6 134.4 288.8 139.8 281.8 139.8 274.8 139.8 269 134.4 268.3 127.6H295.3Z" class="g"/><path d="M256.9 127.6H268C267.4 133.6 262.8 138.5 256.9 139.5V127.6Z" class="g"/><path d="M212.9 269.4C212.9 272 210.8 274 208.2 274 205.7 274 203.6 272 203.6 269.4 203.6 266.8 205.7 264.7 208.2 264.7 210.8 264.7 212.9 266.8 212.9 269.4Z" fill="url(#paint0_linear)"/><path d="M260.1 285.7C260.1 288.3 258 290.4 255.4 290.4 252.8 290.4 250.7 288.3 250.7 285.7 250.7 283.2 252.8 281.1 255.4 281.1 258 281.1 260.1 283.2 260.1 285.7Z" fill="url(#paint1_linear)"/><path d="M218.3 257.7H269.7C271.8 257.7 273.5 256 273.5 253.9 273.5 251.8 271.8 250 269.7 250H218.3C216.2 250 214.5 251.8 214.5 253.9 214.5 256 216.2 257.7 218.3 257.7Z" fill="url(#paint2_linear)"/><path d="M224.2 274H275.6C277.7 274 279.4 272.2 279.4 270.1 279.4 268 277.7 266.3 275.6 266.3H224.2C222.1 266.3 220.4 268 220.4 270.1 220.4 272.2 222.1 274 224.2 274Z" fill="url(#paint3_linear)"/><path d="M333.2 162.9H286.1V168.1H333.2V162.9Z" fill="url(#paint4_linear)"/><path d="M333.2 173.1H286.1V178.2H333.2V173.1Z" fill="url(#paint5_linear)"/><path d="M333.2 183.2H286.1V188.4H333.2V183.2Z" fill="url(#paint6_linear)"/><path d="M276.6 162.9H206.4V188.4H276.6V162.9Z" class="a"/><path d="M333.2 206.5H286.1V211.7H333.2V206.5Z" fill="url(#paint7_linear)"/><path d="M333.2 216.6H286.1V221.8H333.2V216.6Z" fill="url(#paint8_linear)"/><path d="M333.2 226.8H286.1V231.9H333.2V226.8Z" fill="url(#paint9_linear)"/><path d="M276.6 206.5H206.4V231.9H276.6V206.5Z" class="h"/><path d="M328.1 249H288.2V288.9H328.1V249Z" class="d"/><path d="M223.9 307.6C230.1 308 244.8 309 246.7 308.9 248.6 308.8 254.9 310.6 261.9 316.5 272.7 325.7 288.7 343.7 288.7 343.7 288.7 343.7 297.3 348.1 307.5 355.2 309.1 356.4 310.1 358.2 310.1 360.2H224.3C224.3 360.2 224 313 223.9 307.6Z" class="d"/><path d="M284.1 344.7C284.1 344.7 248.2 342.3 241.1 341.5 234.1 340.6 234.1 335.3 234.1 335.3 234.1 335.3 233.2 324.1 232.7 318.6 232.2 313.2 238.4 314 238.4 314 238.4 314 253 314.9 259.3 317.4 265.5 319.8 284.1 344.7 284.1 344.7Z" fill="url(#paint10_linear)"/><path d="M224.3 360.2L225.1 386.9H252.8L260.9 386.8 260.9 386.9H264.6C265.4 381.2 268.4 370.7 278.5 368.7 291.5 366.1 296 372.4 296 372.4L311.3 371.9V360.2H224.3V360.2Z" class="c"/><path d="M307.2 384.3C305.2 385.4 302.7 386.4 299.4 387 301.1 378.3 296 372.4 296 372.4L311.3 371.9V369.8C313 369.6 313.2 372 313.1 374.7 312.9 378.7 310.7 382.3 307.2 384.3Z" class="b"/><path d="M303.7 359C303.7 359 305.6 367.1 310.8 366.7 312 363.9 311.3 359 311.3 359H303.7Z" fill="url(#paint11_linear)"/><path d="M276.1 342.8C276.1 344 277 343.9 278 343.9 279.1 343.9 280 343.3 280 342V333.1C280 331.9 279.1 331.2 278 331.2 277 331.2 276.1 331.1 276.1 332.3V342.8Z" class="b"/><path d="M232.9 352C232.9 352.6 233.2 353.1 233.5 353.1H245.7C246 353.1 246.3 352.6 246.3 352 246.3 351.4 246 351 245.7 351H233.5C233.2 351 232.9 351.4 232.9 352Z" class="b"/><path d="M227.1 285.2H74.2V382.2H227.1V285.2Z" class="h"/><path d="M227.4 381.1H76.1C73.7 381.1 73.4 383 73.4 385.4 73.4 387.8 73.7 389.7 76.1 389.7H227.4V381.1Z" class="g"/><path d="M297.3 372.6H227.4V388.6H297.3V372.6Z" class="b"/><path d="M282.7 404.5C293.4 404.5 302 395.9 302 385.2 302 374.5 293.4 365.9 282.7 365.9 272 365.9 263.4 374.5 263.4 385.2 263.4 395.9 272 404.5 282.7 404.5Z" class="e"/><path d="M293.5 387C294.5 381 290.4 375.4 284.5 374.4 278.5 373.4 272.9 377.5 271.9 383.5 270.9 389.4 275 395 280.9 396 286.9 397 292.5 392.9 293.5 387Z" class="d"/><path d="M104.3 404.5C115 404.5 123.6 395.9 123.6 385.2 123.6 374.5 115 365.9 104.3 365.9 93.6 365.9 85 374.5 85 385.2 85 395.9 93.6 404.5 104.3 404.5Z" class="e"/><path d="M115.2 385.2C115.2 391.2 110.3 396.1 104.3 396.1 98.3 396.1 93.4 391.2 93.4 385.2 93.4 379.2 98.3 374.3 104.3 374.3 110.3 374.3 115.2 379.2 115.2 385.2Z" class="d"/><path d="M393 381.1H339.9V403.1H393V381.1Z" class="g"/><path d="M467.5 381.1H424.5V403.1H467.5V381.1Z" class="f"/><path d="M434.4 381.1H393V403.1H434.4V381.1Z" class="i"/><path d="M468.4 404H339.1V380.2H468.4V404ZM340.8 402.2H466.7V381.9H340.8V402.2Z" class="j"/><path d="M407.5 359.1H354.4V381.1H407.5V359.1Z" class="g"/><path d="M482 359.1H438.9V381.1H482V359.1Z" class="f"/><path d="M448.8 359.1H407.5V381.1H448.8V359.1Z" class="i"/><path d="M482.8 381.9H353.5V358.2H482.8V381.9ZM355.2 380.2H481.1V359.9H355.2V380.2Z" class="j"/><path d="M382.5 337.1H329.4V359.1H382.5V337.1Z" class="g"/><path d="M457 337.1H413.9V359.1H457V337.1Z" class="f"/><path d="M423.8 337.1H382.5V359.1H423.8V337.1Z" class="i"/><path d="M457.8 359.9H328.5V336.2H457.9V359.9H457.8ZM330.2 358.2H456.1V337.9H330.2V358.2Z" class="j"/><path d="M391.6 315.1H338.5V337.1H391.6V315.1Z" class="g"/><path d="M466.1 315.1H423V337.1H466.1V315.1Z" class="f"/><path d="M432.9 315.1H391.6V337.1H432.9V315.1Z" class="i"/><path d="M467 337.9H337.6V314.2H467V337.9ZM339.4 336.2H465.3V315.9H339.4V336.2Z" class="j"/><path d="M403 293.1H349.9V315.1H403V293.1Z" class="g"/><path d="M477.5 293.1H434.4V315.1H477.5V293.1Z" class="f"/><path d="M444.3 293.1H403V315.1H444.3V293.1Z" class="i"/><path d="M478.4 315.9H349V292.2H478.4V315.9ZM350.7 314.2H476.6V293.9H350.7V314.2Z" class="j"/><path d="M436.6 290.4C466.2 288.6 488.6 263.2 486.8 233.7 484.9 204.2 459.5 181.7 430 183.6 400.5 185.4 378 210.8 379.9 240.3 381.7 269.8 407.1 292.3 436.6 290.4Z" class="f"/><path d="M429.4 277.9V268.5C422.3 268.4 415 266 410.8 263.6L414.3 256.3C418.7 258.7 424.4 260.6 431.2 260.6 439.8 260.6 445.6 257.1 445.6 251.4 445.6 246 440.9 242.6 431.9 239.6 419.5 235.7 411.9 231.1 411.9 222.5 411.9 214.2 419 208 430.2 206.5V196.4H437.7V206.1C445 206.3 450 207.9 453.5 209.6L449.9 217.3C447.3 216.1 443 214.5 435.2 214.5 425.8 214.5 422.3 217.3 422.3 221.3 422.3 226.4 426.8 229 437.4 232.6 449.9 236.8 456.2 241.9 456.2 250.8 456.2 258.6 449.5 266.6 437 268.2V278H429.4V277.9Z" class="i"/><path d="M437.8 196.4H429.1V277.9H437.8V196.4Z" class="i"/><path d="M433.3 292.6C402.6 292.6 377.6 267.7 377.6 237 377.6 206.3 402.6 181.3 433.3 181.3 464 181.3 489 206.3 489 237 489 267.7 464 292.6 433.3 292.6ZM433.3 185.6C405 185.6 381.9 208.7 381.9 237 381.9 265.3 405 288.4 433.3 288.4 461.7 288.4 484.7 265.3 484.7 237 484.7 208.7 461.7 185.6 433.3 185.6Z" class="g"/><path d="M126.7 281.2C126.7 281.2 127.4 282.2 130.9 283.1 131.7 283.3 132.5 283.4 132.5 284.7 130.9 284.7 129 284.7 129 284.7L125.5 284.1V284.7H123.6C123.6 284.7 123.1 281.6 124.2 281.2 125.2 281.2 126.7 281.2 126.7 281.2Z" class="k"/><path d="M126.8 278.9L126.6 281.2C126 281.7 125 281.7 124.3 281.3L124.2 281.2V278.9H126.8Z" class="l"/><path d="M109 281.6C109 281.6 109.7 282.6 113.2 283.5 114 283.7 114.8 283.9 114.8 285.1 113.2 285.1 111.4 285.1 111.4 285.1L107.8 284.5V285.1H105.9C105.9 285.1 105.4 282 106.5 281.6 107.5 281.6 109 281.6 109 281.6Z" class="k"/><path d="M109.2 279.4L109 281.6C108.3 282.1 107.4 282.1 106.6 281.7L106.5 281.6V279.4H109.2Z" class="l"/><path d="M128.2 224L127.4 280.1H123.3C123.3 280.1 117.1 234.8 118.4 224 119.7 213.2 128.2 224 128.2 224Z" class="b"/><path d="M123.9 224C123.9 224 122.5 241.2 119.2 250.8 115.9 260.3 110 280.1 110 280.1H105.8C105.8 280.1 112.9 238.7 111.3 224H123.9Z" class="c"/><path d="M127.6 195.4C127.6 195.4 132.6 207.2 133.9 207.2 134.9 207.2 133.5 197.6 133.5 197.6H137.8C137.8 197.6 143.1 214 138.9 217 134.6 220.1 125.4 208.5 125.4 208.5L127.6 195.4Z" fill="url(#paint12_linear)"/><path d="M112.6 225.5L114.1 229.3C114.8 230.8 117.5 230.8 119.3 230.3 119.6 230.3 119.7 229.9 119.5 229.7 118.5 228.6 116 225.9 115.1 225.2L112.6 225.5Z" class="l"/><path d="M123.4 193C125.1 193 126.6 193.8 127.5 195.2 127.8 195.7 128 196.3 128 196.8 128 198.9 128 224 128 224H112.5V198.6C112.5 198.6 112.9 192.9 118.4 192.9 120.7 193 122.4 193 123.4 193Z" fill="url(#paint13_linear)"/><path d="M127.7 224V199.6L128.2 199.6V224H127.7Z" class="m"/><path d="M117.8 187.8L119.4 194C119.4 194 120.8 195.1 122.7 194.6 124.6 194.1 124.2 192.8 124.2 192.8L123.1 188.8 120.2 188.8 117.8 187.8Z" class="l"/><path d="M123.7 189.9C124.3 189.7 124.8 189.5 125 189.2 125.9 186.1 122.2 179.5 122.2 179.5L116.4 182.2 117.5 187C117.8 188.3 118.7 189.3 119.9 189.9 121.1 190.3 122.5 190.3 123.7 189.9Z" class="l"/><path d="M119.3 181.6C119.3 181.6 121.4 181.4 123.4 180.5 125.4 179.6 123.4 177.6 123.4 177.6 123.4 177.6 122.1 178.7 119.2 179 117.3 179.3 116.7 179 115.7 180 114.3 181.3 115.4 184.1 115.4 184.1L118 190.1 118.3 190C118.3 190 117.4 186.3 117.1 185 117.3 184.4 117.7 184.3 118 184.3 118.3 184.4 118.6 184.7 118.7 185L120.4 191.5C120.4 191.5 125 192.1 125.9 191.5 126.9 190.9 124.9 186.4 124.9 186.4 124.9 186.4 123.6 186.2 122.9 187.5 122.3 188.7 120.9 188 120.9 188L119.3 181.6Z" class="k"/><path d="M137 197.6L136.8 196.8C136.5 195 134.8 192.7 133 192.2H131.2L131.8 196 134.3 197.6H137Z" class="l"/><path d="M117.4 184.3C117.9 184.1 118.4 184.5 118.7 185 118.9 185.6 118.7 186.2 118.3 186.3 117.8 186.5 117.3 186.2 117.1 185.6 116.8 185 117 184.4 117.4 184.3Z" class="l"/><path d="M132.5 195.6L136 197.6C136 197.6 133.8 197.6 133.8 197.6L130.1 194.5C130.1 194.5 130.4 193.9 131.2 194.4 132 194.9 132.5 195.6 132.5 195.6Z" class="l"/><path d="M114.2 194.7C114.2 194.7 105.5 204.3 105.5 210.2 105.5 216 112.5 226.2 112.5 226.2L116.1 225.2C116.1 225.2 112.9 212.5 112.9 209.1 112.9 205.8 119.4 200.8 119.4 200.8" fill="url(#paint14_linear)"/><path d="M113.1 209.1C113.1 212 115.7 222.6 116.3 225.1 116.1 225.2 116.1 225.2 115.8 225.2 115.1 222.2 112.6 212 112.6 209.1 112.6 205.7 119 200.8 119.2 200.6L119.5 201C119.5 201.1 113.1 205.9 113.1 209.1Z" class="m"/><path d="M130.2 189.8C130.2 189.8 130 193.6 132.7 196.3 132.8 196.5 133.1 196.6 133.4 196.6 133.9 196.6 134.3 196.3 134.5 196.2 135 196.1 135.1 195.8 135.2 195.6 135.3 195.5 135.2 195.3 135.1 195.1 134.5 194.5 132.8 192.3 133.2 190.1 131.8 189.2 130.2 189.8 130.2 189.8Z" class="b"/><path d="M134.8 196.1C135.1 195.9 135.1 195.8 135.2 195.6 135.3 195.4 135.2 195.3 135.1 195.1 134.5 194.5 132.8 192.3 133.2 190.1 132.7 189.8 132.2 189.7 131.8 189.6 132 192 132.7 193.4 134.8 196.1Z" class="c"/><path d="M132.7 192.6C132.9 193.1 133.2 193.5 133.4 193.4 133.6 193.3 133.6 192.8 133.4 192.3 133.2 191.8 132.9 191.4 132.7 191.5 132.5 191.6 132.5 192.1 132.7 192.6Z" class="b"/><path d="M132.7 191.5L132.9 191.5V191.6L132.8 191.7 132.7 191.5Z" fill="#F59C42"/><path d="M133.3 193.4L133.6 193.3 133.3 193.3 133.3 193.4Z" fill="#E8375E"/><path d="M132.9 192.5C133 193.1 133.3 193.4 133.5 193.3 133.7 193.3 133.8 192.8 133.6 192.3 133.4 191.7 133.1 191.4 132.9 191.5 132.7 191.5 132.7 192 132.9 192.5Z" class="d"/><path d="M128.9 186.8L128.5 186.8C127.7 186.9 127.2 187.6 127.3 188.3L127.4 189.4C127.5 190.2 128.2 190.7 129 190.6L129.4 190.5 128.9 186.8Z" class="b"/><path d="M141.6 186.3C142 189.2 141.6 191.7 140.8 191.8 139.9 191.9 138.9 189.6 138.6 186.6 138.2 183.7 138.6 181.2 139.4 181.1 140.3 181 141.2 183.3 141.6 186.3Z" class="k"/><path d="M138.3 184.7L139.6 185.3 139.8 187 138.7 188.3 138 186.1 138.3 184.7Z" class="a"/><path d="M138.6 186.6C138.3 184.1 138.5 182 139.1 181.3 134.5 185.6 128.7 186.8 128.7 186.8L129.2 190.6C129.2 190.6 137 189.1 140.3 191.6 139.6 191.1 138.9 189.1 138.6 186.6Z" class="n"/><path d="M139.8 186.1C139.9 186.6 139.9 187 139.8 187 139.7 187 139.6 186.7 139.5 186.2 139.4 185.7 139.5 185.3 139.6 185.3 139.6 185.3 139.8 185.7 139.8 186.1Z" class="f"/><path d="M135 194.8C134.9 194.9 134.5 195.1 133.1 195.1 132 195.1 131.6 193.9 131.4 193.2 131.4 193 131.3 192.6 131.6 192.5L133.2 192.2 135 194.8Z" class="l"/><path d="M214.1 326.6L209.4 335.4 214.6 335.1 215 326.3 214.1 326.6Z" class="l"/><path d="M221.5 322.7L217.1 322.7 215.4 350.6H223.1L221.5 322.7Z" class="a"/><path d="M229.4 404.6C229.4 404.6 230.5 405.4 230.3 406.5 230.1 407.6 229.8 410 229.8 410H228.7L228.7 407.7C228.7 407.6 226.4 410 226 410H220.2C220.2 410 219.8 408.5 223.2 408 226.6 407.5 229.4 404.6 229.4 404.6Z" class="n"/><path d="M226.9 403.5L226.1 405.5C225.9 406.1 225.5 406.6 225 406.9 224.5 407.3 223.6 407.8 222.3 408.1 223.9 409.5 226.4 408.1 227.8 407.1 228.5 406.6 229 405.9 229.2 405.1L229.6 403.5H226.9Z" class="l"/><path d="M218.3 404.6C218.3 404.6 219.4 405.4 219.2 406.5 219 407.6 218.7 410 218.7 410H217.6L217.7 407.7C217.7 407.6 215.3 410 214.9 410H209.1C209.1 410 208.7 408.5 212.1 408 215.5 407.5 218.3 404.6 218.3 404.6Z" class="n"/><path d="M215.8 403.5L215 405.5C214.8 406.1 214.5 406.6 214 406.9 213.4 407.3 212.5 407.8 211.2 408.1 212.8 409.5 215.3 408.1 216.8 407.1 217.5 406.6 218 405.9 218.2 405.1L218.5 403.5H215.8Z" class="l"/><path d="M224.8 350.6C224.8 350.6 225.5 354.7 221.3 375.2 224.7 385.9 219.3 403.8 219.3 403.8H215.4L212.7 350.6H224.8Z" class="k"/><path d="M217.6 322.7L216.2 356.5 211.6 354.5C211.6 354.5 213.7 348.2 213.5 339.3 214.2 333 210.6 336.3 215 324 216.7 322.7 217.6 322.7 217.6 322.7Z" class="b"/><path d="M217 319.2L217.6 322C217.8 323.3 219.2 323.9 220.3 323.2L222.2 322 218.8 314.3 217 319.2Z" class="l"/><path d="M228.6 350.6C228.6 350.6 233.7 354.7 229.6 375.2 232.9 385.9 230 403.8 230 403.8H226.4L216.5 350.6H228.6Z" class="n"/><path d="M221.5 319.8C221.5 319.8 225.8 322.2 227.2 324.4 228.5 326.5 228.9 331.3 229 335.5 229.2 341.3 232 356.5 232 356.5H220.3L220 323.3 221.5 319.8Z" class="b"/><path d="M212.9 310.6C215.5 309.9 218.1 312.6 218.1 312.6L220 323.3 223.1 318.6C223.1 318.6 223.3 312.2 220.3 308 218.2 305.4 214.1 306.1 212.1 308.6 211.1 309.9 210.9 311.5 211 313.1 211.1 315.2 211.7 327 211.7 327L217.7 322.6C217.7 322.6 217.6 321.4 217 319.2 216 315.4 211.1 311 212.9 310.6Z" class="k"/><path d="M218.8 312.5C218.5 312.3 217.9 312.6 217.7 313.1 217.5 313.5 217.6 314.1 218 314.2 218.4 314.4 218.9 314.1 219.1 313.6 219.4 313.2 219.2 312.6 218.8 312.5Z" class="l"/><path d="M216 319.7C215.5 319.8 215 319.9 214.7 319.8 212.4 318.2 211.6 311.5 211.6 311.5L213.4 309.6 217 310.4 218.8 314.3C219.3 315.4 219.2 316.6 218.7 317.6 218 318.5 217.1 319.3 216 319.7Z" class="l"/><path d="M212.3 310.5C212.4 312.5 218 312.6 218 312.6L218.3 309.9 215.1 308.1 212.5 309.7C212.5 309.7 212.2 310.1 212.3 310.5Z" class="k"/><path d="M212.4 310.8C212.6 311.6 211.8 312.9 211.8 312.9L211.4 312.1 211.4 311.4 211.8 310.9C211.8 310.9 212.2 310.1 212.4 310.8Z" class="k"/><path d="M226 324.4C231.6 325.1 229 339.7 227.8 345.7 227.5 347.1 225.9 348 224.5 347.6 219.6 346 212.4 339.6 212.4 339.6L213.5 338.1 223.1 340.4C223.1 340.4 219.4 323.7 226 324.4Z" class="l"/><path d="M214.7 334.7L216.5 346.2C216.6 346.5 216.3 346.8 216 346.8H208.7C208.4 346.8 208.2 346.6 208.1 346.3L206.3 334.9C206.3 334.6 206.5 334.3 206.9 334.3H214.1C214.4 334.3 214.6 334.5 214.7 334.7Z" class="a"/><path d="M206.6 339.8C206.5 339.4 206.6 339.1 206.7 338.3 206.9 337.2 206.8 335.5 207.9 336.4 209 337.7 209.1 339.1 209.1 339.1 209.3 339.8 208.8 340.9 208.4 341.5L207.6 343.1C207.6 343.1 206.3 341.6 206.6 339.8Z" class="l"/><path d="M211.3 338.7C211.3 339 211.1 339.3 210.8 339.3 210.5 339.3 210.2 339 210.2 338.7 210.2 338.4 210.5 338.1 210.8 338.1 211.1 338.1 211.3 338.4 211.3 338.7Z" fill="url(#paint15_linear)"/><path d="M158.9 329.6L171.4 341.7 167.4 344.8 158.8 338.1 158.9 329.6Z" class="b"/><path d="M157.5 316.4L158.2 321.7 153.2 319.4 154.1 314.7 157.5 316.4Z" class="l"/><path d="M158.9 317.1C159.6 317.1 160.2 317 160.5 316.7 162.4 314 160.2 306.8 160.2 306.8L153.4 307.9 153.2 312.7C153.2 314 153.8 315.3 154.9 316.1 156.1 316.8 157.5 317.1 158.9 317.1Z" class="l"/><path d="M165 305.8C165.6 309 158.5 308.7 156.2 308.5 155.8 308.5 155.4 308.8 155.5 309.2L155.5 310 154.4 311.3C153.8 312 152.7 311.9 152.4 311.1 151.6 309.3 150.7 306.7 152 305.8 154.1 304.3 156.7 306.8 158 305.3 159.5 303.7 161.3 303.6 161.3 303.6 161.3 303.6 164.4 302.6 165 305.8Z" class="k"/><path d="M153.9 309.9C154.3 309.5 155 309.6 155.5 310 156 310.4 156.1 311 155.7 311.3 155.3 311.7 154.6 311.6 154.1 311.2 153.7 310.8 153.6 310.2 153.9 309.9Z" class="l"/><path d="M161.7 351.2L158.2 321.7 152.5 319.1C152.5 319.1 142.6 334.1 144.1 351.2 148 351.2 161.7 351.2 161.7 351.2Z" class="c"/><path d="M161.7 351.2C161.7 351.2 165.7 370.1 165 375.8 164.3 381.5 161.7 403 161.7 403H157.3L157.8 387.1C157.7 380.2 156.1 373.3 153.1 367.1L150.6 361.8 152.4 351.2H161.7Z" class="k"/><path d="M160.7 405.6C160.7 405.6 162.5 407.2 166.5 408.2 167.4 408.5 168.4 408.1 168.4 409.6 166.5 409.6 163.5 409.6 163.5 409.6L159.4 408.9V409.6H157.2C157.2 409.6 156.6 406 157.9 405.5 159.1 405.6 160.7 405.6 160.7 405.6Z" class="k"/><path d="M160.9 403L160.7 405.6C159.9 406.1 158.9 406.1 158 405.6L157.9 405.6V403H160.9Z" class="l"/><path d="M137.4 404.1C137.4 404.1 137.4 406.8 143 408.5 144.1 408.8 143.7 409.2 143.9 409.6 142.1 409.6 137.6 409.6 137.6 409.6L135.1 406.8 134.3 407.5 132.5 405.7C132.5 405.7 133.3 403.2 134.7 403.2 135.8 403.5 137.4 404.1 137.4 404.1Z" class="k"/><path d="M138.4 401.7L137.4 404.1C136.5 404.3 135.5 404 134.8 403.3L134.7 403.2 135.6 400.7 138.4 401.7Z" class="l"/><path d="M158.2 351.2C158.2 351.2 154.5 370.3 150.5 379.6 147.1 387.4 138.9 401.9 138.9 401.9L135.1 400.7 142.2 377.7C142.8 375.7 143.2 373.7 143.3 371.7L144.1 351.3H158.2V351.2Z" class="n"/><path d="M159.9 342.3H173.4C174.1 342.3 174.7 341.7 174.7 341V340C174.7 339.3 174.1 338.7 173.4 338.7H159.9C159.2 338.7 158.6 339.3 158.6 340V341C158.7 341.7 159.2 342.3 159.9 342.3Z" class="g"/><path d="M172.2 342.4C172.2 342.4 172.3 342.3 172.3 342.2V338.7C172.3 338.6 172.2 338.6 172.2 338.6 172.1 338.6 172 338.6 172 338.7V342.2C172 342.3 172.1 342.4 172.2 342.4Z" class="a"/><path d="M170 342.4C170.1 342.4 170.1 342.3 170.1 342.2V338.7C170.1 338.6 170.1 338.6 170 338.6 169.9 338.6 169.8 338.6 169.8 338.7V342.2C169.8 342.3 169.9 342.4 170 342.4Z" class="a"/><path d="M167.8 342.4C167.9 342.4 168 342.3 168 342.2V338.7C168 338.6 167.9 338.6 167.8 338.6 167.7 338.6 167.7 338.6 167.7 338.7V342.2C167.7 342.3 167.7 342.4 167.8 342.4Z" class="a"/><path d="M165.8 342.4C165.9 342.4 166 342.3 166 342.2V338.7C166 338.6 165.9 338.6 165.8 338.6 165.8 338.6 165.7 338.6 165.7 338.7V342.2C165.7 342.3 165.8 342.4 165.8 342.4Z" class="a"/><path d="M163.7 342.4C163.8 342.4 163.9 342.3 163.9 342.2V338.7C163.9 338.6 163.8 338.6 163.7 338.6 163.6 338.6 163.6 338.6 163.6 338.7V342.2C163.6 342.3 163.6 342.4 163.7 342.4Z" class="a"/><path d="M161.7 342.4C161.8 342.4 161.8 342.3 161.8 342.2V338.7C161.8 338.6 161.8 338.6 161.7 338.6 161.6 338.6 161.5 338.6 161.5 338.7V342.2C161.5 342.3 161.6 342.4 161.7 342.4Z" class="a"/><path d="M159.8 345.2H175.1C175.3 345.2 175.5 345 175.5 344.8V342.3C175.5 342.1 175.3 341.9 175.1 341.9H159.8C159.6 341.9 159.4 342.1 159.4 342.3V344.8C159.4 345 159.6 345.2 159.8 345.2Z" class="n"/><path d="M160.6 338.7H176.3V335.9H160.6V338.7Z" class="a"/><path d="M163.1 338H173.4V336.7H163.1V338Z" class="h"/><path d="M155.7 329.4C155.7 329.4 153.4 335.4 152.5 338.5 152.3 339.3 152.6 340.2 153.4 340.7 157.5 343.3 170.6 345.3 170.6 345.3V347.5C170.6 347.5 152.2 349.3 145.2 345.1 143.4 344.1 142.7 341.7 143.4 339.7 145.3 334.7 149.6 324.5 149.6 324.5" class="c"/><path d="M152.4 338.4C153.3 335.4 155.6 329.3 155.6 329.3L156 329.4C156 329.5 153.7 335.5 152.9 338.5 152.7 339.3 153 340.1 153.6 340.5 155.5 341.8 157.5 342.5 158.8 342.8 158.8 343 158.8 343.1 158.8 343.3 157.4 343 155.5 342.3 153.4 340.9 152.6 340.3 152.2 339.3 152.4 338.4Z" class="b"/><path d="M143.4 339.7C145.3 334.7 146.8 331.2 146.8 331.1L147.2 331.3C147.2 331.4 145.7 334.9 143.9 339.9 143.2 341.8 143.9 344 145.6 344.9 151.5 348.1 159.6 347.8 161 347.7L161.3 347.7 161.3 348.1C161.3 348.1 160.4 348.2 159 348.2 155.8 348.2 150 347.8 145.4 345.3 143.5 344.3 142.7 341.9 143.4 339.7Z" class="b"/><path d="M170.6 347.5L174.1 346.5C175.5 346 175.8 343.6 175.5 341.9 175.5 341.7 175.2 341.6 175 341.7 174 342.5 171.3 344.5 170.6 345.2V347.5H170.6Z" class="l"/><path d="M393.8 389L390.8 384.4 388.7 385.8 391.7 390.4C392.7 392.1 392.8 394.2 391.9 395.9 390.9 397.7 389.1 398.7 387.1 398.7H387.1L354 398.7V401.2L387.1 401.3H387.1C390.1 401.3 392.7 399.7 394.1 397.1 395.5 394.6 395.4 391.5 393.8 389Z" class="b"/><path d="M340.6 359.5H392.5L390.4 385 354.6 385.4 340.6 359.5Z" class="c"/><path d="M392.2 346.8L389.1 383.7H355.3L342.5 359.4H339.6L353.8 386.2H391.5L394.6 349.3H405.7V346.8H392.2Z" class="b"/><path d="M369.7 404.8C369.7 407 367.9 408.9 365.7 408.9 363.5 408.9 361.6 407 361.6 404.8 361.6 402.6 363.5 400.8 365.7 400.8 367.9 400.8 369.7 402.6 369.7 404.8Z" class="b"/><path d="M367.9 404.8C367.9 406 366.9 407 365.7 407 364.5 407 363.5 406 363.5 404.8 363.5 403.6 364.5 402.6 365.7 402.6 366.9 402.6 367.9 403.6 367.9 404.8Z" class="d"/><path d="M385 404.8C385 407 383.2 408.9 381 408.9 378.8 408.9 377 407 377 404.8 377 402.6 378.8 400.8 381 400.8 383.2 400.8 385 402.6 385 404.8Z" class="b"/><path d="M383.2 404.8C383.2 406 382.2 407 381 407 379.8 407 378.8 406 378.8 404.8 378.8 403.6 379.8 402.6 381 402.6 382.2 402.6 383.2 403.6 383.2 404.8Z" class="d"/><path d="M418.7 319.6L420.1 326.5 423.6 320.3 421.8 317.4 418.7 319.6Z" class="l"/><path d="M411.3 403.5C411.3 403.5 412.8 404.3 412.5 405.6 412.3 406.9 411.9 409 411.9 409H411L411 407.4C411 407.3 410.8 407.1 410.6 407.3L408.9 408.5C408.5 408.8 408 409 407.5 409H400.4C400.4 409 400.4 406.7 404.6 406.1 408.7 405.5 411.3 403.5 411.3 403.5Z" class="k"/><path d="M409.2 401L408.3 403.6C408.1 404.1 407.7 404.6 407.2 404.9 406.7 405.3 405.8 405.7 404.5 406.1 406.1 407.4 408.6 406.1 410 405.1 410.7 404.6 411.2 403.9 411.4 403.1L411.9 401H409.2Z" class="l"/><path d="M443.7 401.5C443.7 401.5 445.5 401.6 445.7 402.9 446 404.2 446.5 406.3 446.5 406.3L445.6 406.6 445 405.2C444.9 405 444.7 405 444.6 405.2L443.5 406.6C443.2 407 441.8 408.8 441.3 409H434C434 409 434.2 407.1 438.6 406.4 442.7 405.8 443.7 401.5 443.7 401.5Z" class="k"/><path d="M440.9 399.9L441 402.7C441.1 403.3 440.9 403.9 440.6 404.3 440.2 404.9 439.6 405.6 438.6 406.4 440.5 407.1 442.3 404.9 443.2 403.4 443.7 402.7 443.8 401.9 443.7 401.1L443.4 398.9 440.9 399.9Z" class="l"/><path d="M416.8 339.2C416.9 342.4 411 352.4 411 352.4 411 352.4 416 356.5 417.7 356.5 419.1 352.4 420.1 350.3 420.1 350.3 420.1 350.3 416.7 336.1 416.8 339.2Z" fill="url(#paint16_linear)"/><path d="M417 319.8C416.4 319.8 415.8 319.7 415.5 319.4 413.7 316.5 415.8 308.6 415.8 308.6L422.4 309.8 422.6 315.1C422.7 316.5 422.1 317.8 421 318.7 419.8 319.4 418.4 319.8 417 319.8Z" class="l"/><path d="M417.1 354.3C413 363.3 412.8 380.7 412.8 380.7L408.7 401H412.4C412.4 401 424.6 375.1 425.5 367.8 426.4 360.4 423.5 354.6 423.5 354.6L419.9 349.2C419.9 349.2 418.7 350.5 417.1 354.3Z" class="k"/><path d="M421.7 359.4C421.7 359.4 424.2 369.4 430.8 380.9 435.3 388.6 440.3 400.5 440.3 400.5L443.7 399.1C443.7 399.1 442 387.7 437.3 378.1 436.4 376.1 435.9 373.9 435.9 371.7 436 361.2 433.3 352.4 433.3 352.4L421.7 359.4Z" class="n"/><path d="M423.6 320.3C423.6 320.3 417.9 328.6 416.2 332.6 415.9 333.4 415.8 334.3 416 335.2 418.8 348.2 419.9 358.4 420.3 360 428.3 359.8 434.1 351.4 434.1 351.4 434.1 351.4 432.9 348.9 431.6 346 429.8 342.1 428.8 338 428.5 333.8 428.2 328.1 427.2 323.9 427.2 323.9L423.6 320.3Z" class="a"/><path d="M422.6 305.9C422.6 305.9 423.2 303.3 424.6 302.6 426.5 301.7 430.7 302 431.9 308.6 433.1 315.2 429.8 314.5 429.7 317.1 429.6 319.8 436.1 320.7 436.5 326 436.9 331.3 435.4 332.4 435.4 332.4 435.4 332.4 433.7 335.8 430.5 334.5 429.5 333.3 429.6 331.9 429.4 330.8 429.2 329.7 428.6 328.7 427.7 328 426.4 327.1 424.2 325.6 423.9 323.4 423.5 321.3 424.4 319 425.3 317.4 426.2 315.7 426.7 313.8 426.7 311.9 426.7 310.2 426.7 308.3 426.3 307.5 425.6 305.8 424.6 306.8 424.6 306.8L422.6 305.9Z" class="k"/><path d="M415.8 308.6C415.8 308.6 417.4 304.2 422.6 306.4 423.2 306.7 423.2 306.7 424.4 307.5 428 312.9 422.6 316.2 422.6 316.2L420.5 312.1C420.5 312.1 418.6 312.3 417.3 311.3 416.1 310.2 415.8 308.6 415.8 308.6Z" class="k"/><path d="M421.9 311.9C421.6 311.6 420.9 311.6 420.4 312.1 419.9 312.5 419.8 313.2 420.2 313.5 420.6 313.9 421.2 313.8 421.7 313.4 422.2 312.9 422.3 312.3 421.9 311.9Z" class="l"/><path d="M421.8 306.1L422.2 305.7C422.4 305.4 422.9 305.3 423.2 305.6L424.4 306.4C424.7 306.6 424.7 306.9 424.6 307.2L424.4 307.5 421.8 306.1Z" class="f"/><path d="M420.7 331.1C420.7 331.1 419.8 327.2 423.6 326.5 426.7 326 427.1 329.7 427.1 329.7 427.1 329.7 428.9 345.1 426.3 346.6 423.6 348.1 407.1 349.2 407.1 349.2L405.1 348.5C404.1 348.2 403.3 347.4 402.8 346.4L402.3 345.1 407 347C407 347 422.6 344.1 422.6 342.3 422.6 340.5 420.7 331.1 420.7 331.1Z" class="l"/><path d="M378.4 289.3L369.6 289.3C368.5 289.4 367.2 289.8 366.9 290.8 366.9 290.8 366.8 291.4 366.8 292.1 367.1 292.5 378.8 292.1 378.8 292.1L378.8 292C380.1 290.5 378.4 289.3 378.4 289.3Z" class="e"/><path d="M366.8 292.1L378.8 292 378.7 292.5H366.8L366.8 292.1Z" class="k"/><path d="M374.9 289.3H374.1L374.4 290.4H375.1L374.9 289.3Z" class="a"/><path d="M373.2 289.3H372.4L372.7 290.4H373.5L373.2 289.3Z" class="a"/><path d="M379 286.4L378.4 289.3C377.7 289.7 376.8 289.7 376 289.4L375.9 289.3 375.5 286.4H379V286.4Z" class="l"/><path d="M399 289.3L390.2 289.3C389 289.4 387.7 289.8 387.5 290.8 387.5 290.8 387.3 291.4 387.4 292.1 387.7 292.5 399.3 292.1 399.3 292.1L399.4 292C400.6 290.5 399 289.3 399 289.3Z" class="k"/><path d="M387.3 292.1L399.3 292 399.2 292.5H387.3L387.3 292.1Z" class="k"/><path d="M395.5 289.3H394.7L394.9 290.4H395.7L395.5 289.3Z" class="a"/><path d="M393.8 289.3H393L393.2 290.4H394L393.8 289.3Z" class="a"/><path d="M398.6 286.4L399 289.3C398.3 289.7 397.3 289.7 396.6 289.4L396.5 289.3 395.1 286.4H398.6V286.4Z" class="l"/><path d="M385.5 187.9L392.7 192.6 390.5 198.4C390.4 198.4 390.4 198.5 390.3 198.6 390.2 198.6 390 198.6 389.9 198.6 389.8 198.6 389.8 198.6 389.8 198.6 389.8 198.6 389.7 198.6 389.7 198.6 387.8 198.6 386.1 199.8 385.1 201.4 383.9 201.3 382.8 201 381.7 200.5 380.9 200.1 380.3 199.7 380.1 199.3 379.3 195.2 385.5 187.9 385.5 187.9Z" class="l"/><path d="M376.2 189.4C376.2 189.4 375.4 197.8 377.1 203.2 376.3 203.9 373.3 207.2 372.3 202.9 371.4 198.7 373.4 187.9 373.4 187.9L376.2 189.4Z" class="l"/><path d="M380.6 188.8L382.3 189.9 381.7 191.2 379.9 190.4 380.6 188.8Z" class="k"/><path d="M381.6 190.4C381.4 190.7 381.4 191.1 381.6 191.2 381.7 191.2 382 191 382.2 190.6 382.3 190.2 382.3 189.8 382.2 189.8 382 189.7 381.8 190 381.6 190.4Z" class="k"/><path d="M360 182.6C360 182.6 360 182.6 360 182.6 360.3 181.8 360.9 180.7 361.7 179.6 362.9 177.9 363.3 177 363.3 177L380.9 188.5 379.7 190.7 360 183.4C360 183.2 360.1 182.9 360 182.6Z" class="d"/><path d="M387.1 201.4L387.7 205.3H382.1L381.7 200.5 387.1 201.4Z" class="l"/><path d="M372.6 211.2C372.6 211.2 366 209.1 363.9 206.2 361.8 203.4 365.4 187.9 365.4 187.9L364.9 185.1C364.7 183.6 365.8 182.1 367.4 182.1L369.2 182.1C369.9 182.1 370.4 182.9 370.1 183.5L367.8 188.8C367.8 188.8 366.1 200.5 368.5 201.4 371.4 202.4 374.7 202.7 374.7 202.7L372.6 211.2Z" class="l"/><path d="M385 201.4L386.7 197.6 385.6 196.9C384.8 196.4 384.4 195.4 384.7 194.5L386 190.9C386 190.9 382.5 190.5 382.6 187.3 382.6 185.7 384.9 185.7 384.9 185.7 384.9 185.7 385.6 187.1 387.7 187.3 388.6 187.2 391.1 187.5 392.8 190.4 393.9 192.4 393.4 195.5 392.4 197.8 391.5 199.9 389.3 201 387.1 201.4H385V201.4Z" class="k"/><path d="M391.7 233.1C391.7 233.1 391.4 241.1 389.7 249.8 389.1 252.4 389.3 255 390.2 257.5 394.1 269.3 399.6 286.9 399.6 286.9H394.7C394.7 286.9 383.6 266 380.7 255.7 377.8 245.4 377.3 242.1 377.3 242.1L380.8 233.1H391.7Z" class="k"/><path d="M387.6 195.9C387.8 196.5 387.4 197.2 386.7 197.6 386 198 385.3 197.8 385.1 197.2 384.9 196.6 385.3 195.8 386 195.5 386.7 195.1 387.4 195.3 387.6 195.9Z" class="l"/><path d="M375.7 233.1H391.7V212.5C391.7 208 388.3 204.2 383.8 203.8L372.7 202.4C372.7 202.4 371.3 204.4 367.7 209.1 372.1 211.8 377.2 213.1 377.2 213.1L375.7 233.1Z" fill="url(#paint17_linear)"/><path d="M391.7 233.1C391.7 233.1 389.5 241.3 381.1 250.5 379.7 251.9 377.7 254.7 378 258.8L379.7 286.9H374.7C374.7 286.9 368.6 263.6 369.9 252.1 371.3 240.6 375.7 233.1 375.7 233.1H391.7V233.1Z" class="n"/><path d="M362.7 180.7C361.9 182.5 360.7 183.7 360.1 183.5 359.5 183.2 359.8 181.5 360.6 179.7 361.5 177.9 362.7 176.7 363.2 177 363.8 177.2 363.6 178.9 362.7 180.7Z" class="a"/><path d="M376.9 186L376.8 186C376.3 186.3 375.7 186.3 375.1 186.2L375 186.1C374.1 185.8 373.4 185.1 373.1 184.2 373 183.8 373.3 183.4 373.8 183.5L374.9 183.7C375.3 183.8 375.7 184.1 375.9 184.4L376.9 186Z" class="l"/><path d="M473.4 85.8L475.7 92.9 468.9 90.2 446 79.1 473.4 85.8Z" class="o"/><path d="M475.7 92.9L463.9 90.4 467 89.3 475.7 92.9Z" class="d"/><path d="M473.4 85.8L476.4 79.7 446 79.1 473.4 85.8Z" fill="url(#paint18_linear)"/><path d="M446 79.1L468.9 90.2 464 99 446 79.1Z" fill="url(#paint19_linear)"/><path d="M472.1 99.1C472.2 99.1 472.3 99 472.3 99 472.6 98.8 472.6 98.4 472.4 98.2 471.7 97.4 471 96.8 470.3 96.1 470 95.9 469.7 96 469.5 96.2 469.3 96.5 469.3 96.8 469.5 97 470.2 97.6 470.9 98.2 471.5 98.9 471.7 99.1 471.9 99.2 472.1 99.1Z" class="d"/><path d="M454.3 159.3C454.2 159 454.4 158.6 454.6 158.5 456.3 157.8 457.9 156.9 459.3 155.6 459.5 155.4 459.9 155.4 460.1 155.6 460.3 155.8 460.3 156.2 460.1 156.4 458.5 157.8 456.8 158.9 455.1 159.6 455.1 159.6 455 159.6 455 159.6 454.8 159.7 454.4 159.5 454.3 159.3ZM461.7 153.9C461.4 153.7 461.4 153.4 461.6 153.1 462.7 151.6 463.7 150 464.4 148.3 464.5 148 464.8 147.9 465.1 148 465.4 148.1 465.5 148.4 465.4 148.7 464.7 150.5 463.7 152.2 462.5 153.8 462.4 153.9 462.3 154 462.2 154 462 154.1 461.8 154 461.7 153.9ZM465.8 145.8C465.5 145.7 465.3 145.4 465.4 145.1L465.4 144.8C465.7 143.2 465.9 141.4 465.9 139.5 465.9 139.2 466.2 139 466.5 139 466.8 139 467 139.2 467 139.5 467.1 141.4 466.9 143.3 466.5 145.1L466.5 145.3C466.4 145.6 466.3 145.7 466.1 145.8 466 145.8 465.9 145.8 465.8 145.8ZM466.3 136.7C466 136.7 465.7 136.5 465.7 136.1 465.5 134.4 465.2 132.5 464.7 130.6 464.6 130.3 464.8 130 465.1 129.9 465.4 129.8 465.7 130 465.8 130.3 466.3 132.3 466.6 134.2 466.8 136 466.9 136.3 466.7 136.5 466.5 136.6 466.4 136.6 466.4 136.7 466.3 136.7ZM464.4 127.7C464.1 127.8 463.8 127.6 463.7 127.3 463.7 127.2 463.6 127 463.6 126.9 462.9 127 462.3 127.1 461.7 127.2 461.3 127.2 461.1 127 461 126.7 461 126.4 461.2 126.1 461.5 126.1 462.1 126 462.6 125.9 463.2 125.8 462.8 124.6 462.3 123.3 461.8 122 461.6 121.7 461.8 121.3 462.1 121.2 462.4 121.1 462.7 121.2 462.8 121.5 463.4 122.9 463.9 124.2 464.3 125.5 465.2 125.2 466 124.9 466.8 124.5 467.1 124.4 467.5 124.5 467.6 124.8 467.7 125.1 467.6 125.4 467.3 125.5 466.5 126 465.6 126.3 464.7 126.6 464.7 126.7 464.8 126.8 464.8 127 464.9 127.3 464.7 127.6 464.4 127.7ZM469.6 123.6C469.4 123.4 469.4 123 469.7 122.8 470.6 122.1 471.4 121.3 472.1 120.4 472.6 119.9 473 119.3 473.3 118.7 473.5 118.4 473.8 118.3 474.1 118.5 474.4 118.7 474.5 119 474.3 119.3 473.9 119.9 473.5 120.6 473 121.2 472.2 122.1 471.3 122.9 470.4 123.7 470.3 123.7 470.3 123.8 470.2 123.8 470 123.9 469.7 123.8 469.6 123.6ZM458.1 127.3C456.1 127.2 454.1 126.8 452.3 126 452.1 125.9 451.9 125.5 452 125.3 452.2 125 452.5 124.8 452.8 125 454.5 125.6 456.3 126.1 458.2 126.2 458.5 126.2 458.7 126.5 458.7 126.8 458.7 127 458.5 127.2 458.3 127.3 458.3 127.3 458.2 127.3 458.1 127.3ZM475 116.4C474.7 116.3 474.6 116 474.7 115.7 475.3 114 475.6 112.1 475.6 110.2 475.6 109.9 475.8 109.7 476.1 109.7 476.4 109.7 476.7 109.9 476.7 110.2 476.7 112.2 476.4 114.2 475.8 116.1 475.7 116.2 475.6 116.4 475.4 116.4 475.3 116.4 475.2 116.4 475 116.4ZM449.2 124.3C448.8 124 448.4 123.7 448 123.3 446.9 122.3 446 121.1 445.3 119.8 445.1 119.5 445.3 119.2 445.5 119.1 445.8 118.9 446.2 119 446.3 119.3 446.9 120.5 447.8 121.6 448.8 122.5 449.1 122.8 449.5 123.1 449.9 123.4 450.1 123.5 450.2 123.9 450 124.2 449.9 124.3 449.8 124.3 449.7 124.4 449.6 124.4 449.4 124.4 449.2 124.3ZM460.4 118.8C459.5 116.8 458.6 115.2 457.6 114 457.4 113.8 457.4 113.4 457.7 113.2 457.9 113 458.3 113.1 458.5 113.3 459.5 114.6 460.5 116.2 461.5 118.3 461.6 118.6 461.5 119 461.2 119.1 461.2 119.1 461.1 119.1 461.1 119.1 460.9 119.2 460.5 119.1 460.4 118.8ZM475.9 107.4C475.6 107.4 475.3 107.2 475.2 106.9 475.1 106.1 474.9 105.2 474.6 104.4 474.3 103.5 473.9 102.6 473.4 101.7 473.2 101.4 473.3 101.1 473.6 100.9 473.9 100.8 474.2 100.9 474.4 101.1 474.9 102.1 475.3 103.1 475.7 104.1 476 104.9 476.2 105.8 476.4 106.7 476.4 107 476.2 107.2 476 107.3 475.9 107.3 475.9 107.4 475.9 107.4ZM444.8 116.9C444.5 116.9 444.2 116.7 444.2 116.3 444 114.7 444.4 113.2 445.3 111.9 445.7 111.5 446 111.1 446.5 110.7 446.7 110.6 447.1 110.6 447.3 110.9 447.5 111.1 447.4 111.5 447.2 111.7 446.8 111.9 446.5 112.2 446.3 112.6 445.5 113.6 445.2 114.8 445.4 116.2 445.4 116.5 445.2 116.7 445 116.8 444.9 116.8 444.9 116.9 444.8 116.9ZM455.2 111.8C453.7 110.9 451.8 110.4 450.1 110.6 449.8 110.6 449.5 110.4 449.4 110.1 449.4 109.7 449.6 109.5 450 109.4 452 109.2 454.1 109.7 455.8 110.9 456.1 111 456.1 111.4 456 111.6 455.9 111.7 455.8 111.8 455.7 111.9 455.5 111.9 455.3 111.9 455.2 111.8Z" class="d"/><path d="M451.7 160.5C451.9 160.4 452.1 160.2 452 159.9 452 159.6 451.7 159.4 451.4 159.4 450.5 159.5 449.6 159.5 448.7 159.4 448.4 159.4 448.1 159.7 448.1 160 448.1 160.3 448.3 160.5 448.6 160.6 449.6 160.7 450.6 160.6 451.6 160.5 451.6 160.5 451.6 160.5 451.7 160.5Z" class="d"/><path d="M227.3 49.6L206.9 38.4 196.4 36.3 188.6 37.5 227.3 49.6Z" fill="url(#paint20_linear)"/><path d="M227.3 49.6L189.1 39.8 188.6 37.5" class="o"/><path d="M188 46.4L188 46.5 189.6 52.4 227.2 49.6 188 46.4Z" class="c"/><path d="M180.7 42.9L186.1 38.5 227.1 49.6 191.8 48.5 180.7 42.9Z" fill="url(#paint21_linear)"/><path d="M94.6 118.7C95.9 118.2 97.1 117.7 98.3 117.1 98.6 116.9 98.9 117 99 117.3 99.2 117.6 99.1 117.9 98.8 118 97.6 118.7 96.3 119.2 95 119.7 94.5 119.9 94 120 93.6 120.2 93.4 120.2 93.2 120.2 93.1 120.1 93 120 92.9 119.9 92.9 119.8 92.8 119.5 92.9 119.2 93.2 119.1 93.7 119 94.2 118.8 94.6 118.7Z" class="d"/><path d="M169.5 38.8C171.2 39 173 39.3 175 39.6 175.3 39.7 175.5 40 175.4 40.3 175.4 40.6 175.1 40.8 174.8 40.7 172.8 40.4 171 40.1 169.3 39.9 169.2 39.8 169.1 39.8 169.1 39.8 168.9 39.6 168.8 39.4 168.8 39.2 168.9 38.9 169.2 38.7 169.5 38.8Z" class="d"/><path d="M160.2 39.2C160.1 39.1 160 38.9 160 38.7 160 38.4 160.2 38.2 160.5 38.2 162.3 38.2 164.2 38.2 166.1 38.4 166.5 38.4 166.7 38.7 166.6 39 166.6 39.3 166.4 39.5 166 39.5 164.1 39.4 162.3 39.3 160.6 39.3 160.4 39.3 160.3 39.3 160.2 39.2Z" class="d"/><path d="M105.3 112C105.6 111.7 105.9 111.7 106.1 112 106.3 112.2 106.3 112.5 106.1 112.8 104.8 114.1 103.3 115.3 101.7 116.3 101.5 116.4 101.3 116.4 101.1 116.3 101 116.3 101 116.2 101 116.2 100.8 115.9 100.8 115.6 101.1 115.4 102.6 114.4 104 113.2 105.3 112Z" class="d"/><path d="M107.6 110.3C107.4 110.1 107.4 109.8 107.6 109.5 107.9 109.2 108.2 108.8 108.5 108.4 109.3 107.3 110 106.2 110.6 105 110.7 104.8 111.1 104.7 111.4 104.8 111.6 105 111.7 105.3 111.6 105.6 110.9 106.8 110.2 107.9 109.4 109 109 109.4 108.7 109.8 108.4 110.2 108.2 110.5 107.9 110.5 107.6 110.3 107.6 110.3 107.6 110.3 107.6 110.3Z" class="d"/><path d="M112.3 102.8C112.3 102.8 112.2 102.8 112.2 102.7 112 102.6 111.9 102.3 112 102.1 112.7 100.5 113.2 98.8 113.7 96.9 113.8 96.6 114.1 96.4 114.4 96.5 114.7 96.6 114.9 96.9 114.8 97.2 114.3 99.1 113.7 100.9 113 102.5 112.9 102.8 112.6 102.9 112.3 102.8Z" class="d"/><path d="M127 55.4C126.6 56 126.1 56.6 125.7 57.1 125 58 124.4 58.9 123.8 59.9 123.7 60.1 123.3 60.2 123.1 60 123.1 60 123 60 123 60 122.8 59.8 122.7 59.5 122.9 59.3 123.5 58.3 124.1 57.4 124.8 56.5 125.2 55.9 125.7 55.3 126.2 54.7 126.4 54.5 126.7 54.4 127 54.6 127.2 54.8 127.2 55.2 127 55.4Z" class="d"/><path d="M122.2 62.7C121.3 64.3 120.6 66 120 67.7 119.9 68 119.6 68.2 119.3 68.1 119.2 68 119.2 68 119.1 68 118.9 67.8 118.9 67.6 118.9 67.4 119.6 65.6 120.3 63.9 121.2 62.2 121.4 61.9 121.7 61.8 122 62 122.2 62.1 122.3 62.4 122.2 62.7Z" class="d"/><path d="M133.2 49.2C131.8 50.4 130.5 51.6 129.2 53 129 53.2 128.7 53.2 128.5 53 128.5 53 128.5 53 128.4 53 128.2 52.8 128.2 52.4 128.4 52.2 129.7 50.8 131.1 49.6 132.5 48.4 132.8 48.2 133.1 48.2 133.3 48.5 133.5 48.7 133.5 49 133.2 49.2Z" class="d"/><path d="M143.5 42.9C143.3 43 143.1 43 142.9 42.8 142.9 42.8 142.8 42.7 142.8 42.6 142.6 42.3 142.8 42 143 41.9 144.8 41.1 146.5 40.5 148.3 39.9 148.6 39.9 148.9 40 149 40.3 149.1 40.6 148.9 40.9 148.6 41 146.9 41.5 145.2 42.2 143.5 42.9Z" class="d"/><path d="M116.1 85.5C116 85.5 115.9 85.5 115.8 85.4 115.7 85.3 115.6 85.1 115.6 84.9L115.7 84.2C115.9 82.6 116.1 81 116.3 79.4 116.3 79.1 116.6 78.9 116.9 78.9 117.2 78.9 117.4 79.2 117.4 79.5 117.2 81.1 117 82.7 116.8 84.3L116.7 85C116.7 85.3 116.4 85.5 116.1 85.5Z" class="d"/><path d="M135.9 47.2C135.7 47.4 135.4 47.4 135.2 47.2 135.2 47.2 135.1 47.1 135.1 47.1 134.9 46.8 135 46.5 135.2 46.3 136.8 45.2 138.4 44.2 140 43.4 140.3 43.2 140.6 43.3 140.8 43.6 140.9 43.9 140.8 44.2 140.5 44.4 138.9 45.2 137.4 46.2 135.9 47.2Z" class="d"/><path d="M115.8 87.7C116.2 87.8 116.4 88 116.3 88.3 116.1 90.5 115.8 92.3 115.5 93.9 115.4 94.2 115.1 94.4 114.8 94.3 114.8 94.3 114.7 94.3 114.6 94.2 114.5 94.1 114.4 93.9 114.4 93.7 114.7 92.1 115 90.3 115.2 88.2 115.3 87.9 115.6 87.7 115.8 87.7Z" class="d"/><path d="M90.1 119.9C90.4 119.8 90.7 120 90.7 120.3 90.8 120.6 90.6 120.9 90.3 121 88.6 121.3 86.7 121.6 84.7 121.7 84.6 121.7 84.4 121.7 84.3 121.6 84.2 121.5 84.1 121.4 84.1 121.2 84.1 120.9 84.3 120.6 84.6 120.6 86.6 120.4 88.4 120.2 90.1 119.9Z" class="d"/><path d="M118.6 70.2C118.9 70.3 119.1 70.6 119 70.9 118.6 72.5 118.2 74.3 117.9 76.2 117.8 76.5 117.5 76.8 117.2 76.7 117.2 76.7 117.1 76.7 117 76.6 116.8 76.5 116.7 76.3 116.8 76.1 117.1 74 117.5 72.2 117.9 70.6 118 70.3 118.3 70.1 118.6 70.2Z" class="d"/><path d="M155.2 38.5C155.9 38.4 156.5 38.4 157.2 38.3 157.5 38.3 157.7 38.5 157.8 38.8 157.8 39.1 157.6 39.4 157.3 39.4 156.6 39.5 156 39.5 155.4 39.6 154.2 39.8 153 40 151.8 40.2 151.7 40.2 151.5 40.2 151.4 40.1 151.3 40 151.2 39.9 151.2 39.8 151.1 39.5 151.3 39.2 151.6 39.1 152.8 38.9 154 38.7 155.2 38.5Z" class="d"/></g><defs><linearGradient x1="203.6" y1="269.4" x2="212.9" y2="269.4" gradientUnits="userSpaceOnUse"><stop stop-color="#E0F0EB"/><stop offset="1" stop-color="#C0E4EF"/></linearGradient><linearGradient x1="250.7" y1="285.7" x2="260.1" y2="285.7" gradientUnits="userSpaceOnUse"><stop stop-color="#E0F0EB"/><stop offset="1" stop-color="#C0E4EF"/></linearGradient><linearGradient x1="214.5" y1="253.9" x2="273.5" y2="253.9" gradientUnits="userSpaceOnUse"><stop stop-color="#E0F0EB"/><stop offset="1" stop-color="#C0E4EF"/></linearGradient><linearGradient x1="220.4" y1="270.1" x2="279.4" y2="270.1" gradientUnits="userSpaceOnUse"><stop stop-color="#E0F0EB"/><stop offset="1" stop-color="#C0E4EF"/></linearGradient><linearGradient x1="286.1" y1="165.5" x2="333.2" y2="165.5" gradientUnits="userSpaceOnUse"><stop stop-color="#E0F0EB"/><stop offset="1" stop-color="#C0E4EF"/></linearGradient><linearGradient x1="286.1" y1="175.7" x2="333.2" y2="175.7" gradientUnits="userSpaceOnUse"><stop stop-color="#E0F0EB"/><stop offset="1" stop-color="#C0E4EF"/></linearGradient><linearGradient x1="286.1" y1="185.8" x2="333.2" y2="185.8" gradientUnits="userSpaceOnUse"><stop stop-color="#E0F0EB"/><stop offset="1" stop-color="#C0E4EF"/></linearGradient><linearGradient x1="286.1" y1="209.1" x2="333.2" y2="209.1" gradientUnits="userSpaceOnUse"><stop stop-color="#E0F0EB"/><stop offset="1" stop-color="#C0E4EF"/></linearGradient><linearGradient x1="286.1" y1="219.2" x2="333.2" y2="219.2" gradientUnits="userSpaceOnUse"><stop stop-color="#E0F0EB"/><stop offset="1" stop-color="#C0E4EF"/></linearGradient><linearGradient x1="286.1" y1="229.3" x2="333.2" y2="229.3" gradientUnits="userSpaceOnUse"><stop stop-color="#E0F0EB"/><stop offset="1" stop-color="#C0E4EF"/></linearGradient><linearGradient x1="284.1" y1="329.3" x2="232.7" y2="329.3" gradientUnits="userSpaceOnUse"><stop stop-color="#E0F0EB"/><stop offset="1" stop-color="#C0E4EF"/></linearGradient><linearGradient x1="303.7" y1="362.9" x2="311.5" y2="362.9" gradientUnits="userSpaceOnUse"><stop stop-color="#E0F0EB"/><stop offset="1" stop-color="#C0E4EF"/></linearGradient><linearGradient x1="125.3" y1="206.5" x2="140.5" y2="206.5" gradientUnits="userSpaceOnUse"><stop stop-color="#E0F0EB"/><stop offset="1" stop-color="#C0E4EF"/></linearGradient><linearGradient x1="112.6" y1="208.5" x2="128" y2="208.5" gradientUnits="userSpaceOnUse"><stop stop-color="#E0F0EB"/><stop offset="1" stop-color="#C0E4EF"/></linearGradient><linearGradient x1="105.5" y1="210.4" x2="119.4" y2="210.4" gradientUnits="userSpaceOnUse"><stop stop-color="#C0E4EF"/><stop offset="1" stop-color="#E0F0EB"/></linearGradient><linearGradient x1="211.3" y1="338.7" x2="210.2" y2="338.7" gradientUnits="userSpaceOnUse"><stop stop-color="#E0F0EB"/><stop offset="1" stop-color="#C0E4EF"/></linearGradient><linearGradient x1="411" y1="347.7" x2="420.1" y2="347.7" gradientUnits="userSpaceOnUse"><stop stop-color="#E0F0EB"/><stop offset="1" stop-color="#C0E4EF"/></linearGradient><linearGradient x1="367.7" y1="217.7" x2="391.7" y2="217.7" gradientUnits="userSpaceOnUse"><stop stop-color="#E0F0EB"/><stop offset="1" stop-color="#C0E4EF"/></linearGradient><linearGradient x1="446.1" y1="78.5" x2="475.9" y2="82.9" gradientUnits="userSpaceOnUse"><stop offset="6.3e-07" stop-color="#F1F8F8"/><stop offset="1" stop-color="#C0E4EF"/></linearGradient><linearGradient x1="444.7" y1="87.5" x2="468.8" y2="91.1" gradientUnits="userSpaceOnUse"><stop offset="6.3e-07" stop-color="#F1F8F8"/><stop offset="1" stop-color="#C0E4EF"/></linearGradient><linearGradient x1="188.6" y1="43" x2="227.3" y2="43" gradientUnits="userSpaceOnUse"><stop offset="6.3e-07" stop-color="#F1F8F8"/><stop offset="1" stop-color="#C0E4EF"/></linearGradient><linearGradient x1="180.7" y1="44" x2="227.1" y2="44" gradientUnits="userSpaceOnUse"><stop offset="6.3e-07" stop-color="#F1F8F8"/><stop offset="1" stop-color="#C0E4EF"/></linearGradient><clipPath><rect width="419" height="397" class="a"/></clipPath></defs></svg>